<?xml version="1.0" encoding="utf-8"?>
<svg version="1.1" id="Layer_1" xmlns="http://www.w3.org/2000/svg" xmlns:xlink="http://www.w3.org/1999/xlink" x="0px" y="0px"
	 viewBox="0 0 230 80" style="enable-background:new 0 0 230 80;" xml:space="preserve">
<style type="text/css">
	.st0{fill:#FFFFFF;}
</style>
<g>
	<polygon class="st0" points="11.3,0.7 0,0.7 0,79.3 33.7,79.3 33.7,68.1 11.3,68.1 	"/>
	<path class="st0" d="M62.4,60.6c0,2.8-0.7,4.9-2,6.2c-1.3,1.3-3,2-5,2c-2,0-3.7-0.7-5-2c-1.3-1.3-2-3.4-2-6.2V0.7H37.2v61
		c0,2.6,0.5,5,1.4,7.1c1,2.2,2.3,4.1,4,5.8c1.7,1.7,3.6,3,5.8,4c2.2,1,4.5,1.4,7,1.4c2.5,0,4.9-0.5,7.1-1.4c2.2-1,4.2-2.3,5.9-4
		c1.7-1.7,3-3.6,3.9-5.8c0.9-2.2,1.4-4.5,1.4-7.1v-61H62.4V60.6z"/>
	<polygon class="st0" points="136.7,0.7 136.7,48.1 136.5,48.1 119.4,0.7 107.3,0.7 107.3,48.1 107,48.1 90,0.7 79.1,0.7 79.1,79.3 
		90.4,79.3 90.4,32 90.6,32 107.9,79.3 119.9,79.3 119.9,32 120.1,32 137.4,79.3 148,79.3 148,0.7 	"/>
	<path class="st0" d="M185,5.2c-3.3-3.5-7.6-5.2-13-5.2c-2.7,0-5.2,0.5-7.5,1.4c-2.3,0.9-4.2,2.2-5.8,3.8c-1.6,1.6-2.9,3.5-3.8,5.7
		c-0.9,2.2-1.3,4.6-1.3,7.2v43.3c0,3.6,0.6,6.6,1.7,8.9c1.1,2.3,2.6,4.2,4.4,5.7c1.8,1.5,3.8,2.5,6,3.1c2.2,0.6,4.4,0.9,6.5,0.9
		c2.5,0,4.9-0.5,7-1.5c2.2-1,4.1-2.3,5.7-4c1.6-1.7,2.9-3.6,3.8-5.8c0.9-2.2,1.4-4.5,1.4-6.9v-4.9h-11.3v3.9c0,1.5-0.2,2.8-0.7,3.9
		c-0.4,1-1,1.8-1.7,2.4c-0.7,0.6-1.5,1-2.4,1.3c-0.9,0.3-1.6,0.4-2.4,0.4c-2.6,0-4.4-0.8-5.4-2.3c-1-1.5-1.5-3.5-1.5-5.7V20.4
		c0-2.7,0.5-4.8,1.4-6.6c0.9-1.7,2.8-2.6,5.6-2.6c2.1,0,3.8,0.8,5.1,2.4c1.3,1.6,1.9,3.5,1.9,5.7v3.8h11.3v-4.4
		c0-2.7-0.5-5.2-1.4-7.6C187.9,8.9,186.7,6.9,185,5.2z"/>
	<polygon class="st0" points="221.3,0.7 221.3,34.4 207.4,34.4 207.4,0.7 196.1,0.7 196.1,79.3 207.4,79.3 207.4,44.3 221.3,44.3 
		221.3,79.3 232.7,79.3 232.7,0.7 	"/>
</g>
</svg>
